
<global>
amp_veltrack=0
ampeg_attack=0.005
ampeg_release=0.50
</global>

<group>
amp_veltrack=0
ampeg_release=0.20
group_label=PP
lpc_hicc1=42
lpc_locc1=0

<region>
hivel=127
key=A#1
loop_end=250289
loop_mode=loop_continuous
loop_start=81360
loop_xfade=20469
lovel=0
lpc=IuE2Q/Gi48OXsKJDYhfHwsYwJkM+zg7DCJfUQSBtCsE2B3xBNbk8wU3br8AFzGHBywxTQfOqFELTA9rBw3G6wcpXJkJq/J/BE66VP/YwncF6pu9BgG5wwWrtsEAnjwLA
lpc_rms=-30.88
sample=Bassoon_sustain_PP_A#1.opus
</region>

<region>
hivel=127
key=A#2
loop_end=252244
loop_mode=loop_continuous
loop_start=81996
loop_xfade=20629
lovel=0
lpc=0tS4Q3fWbsTeAlREy/Hjw7ZFv0NteoPD4QYhQ8sOucJoBmXA6OfcQZ0xDsL9A3/CRnXaQhBPZkJX3xfDYfEEQgVhwkIGY5nCxv9fQjEmoMIlgY5CSQqxwpxYlUITiZjB
lpc_rms=-24.30
sample=Bassoon_sustain_PP_A#2.opus
</region>

<region>
hivel=127
key=A#3
loop_end=255351
loop_mode=loop_continuous
loop_start=83006
loop_xfade=20883
lovel=0
lpc=f62mQ87qZsT2L2NEH9Xyw1p/q0PB6InDwtUjQx7uXcIlMG7AfAymwQxRY7+EDSXCAGruQsZhisFGJSLCmFVXwm4GqELi02/CCc6HQhM7psKjcGtCKc3RwA+2ZsH4mM9A
lpc_rms=-23.43
sample=Bassoon_sustain_PP_A#3.opus
</region>

<region>
hivel=127
key=A2
loop_end=262289
loop_mode=loop_continuous
loop_start=85261
loop_xfade=21451
lovel=0
lpc=aGSkQ8aJasQUEG5EzfcSxAKcB0TY6s7DJZFGQ6NBF8N3aaRC5GMpQTZXrsJRcrhBluSpQl6AP0JJ9P7Cv5+DQSHAN8DAIRRCldPYwAL+5sHnxTpCMFgbwozwjEGTSnXA
lpc_rms=-26.31
sample=Bassoon_sustain_PP_A2.opus
</region>

<region>
hivel=127
key=A3
loop_end=258467
loop_mode=loop_continuous
loop_start=84019
loop_xfade=21138
lovel=0
lpc=uMGDQxlTOcQg4i9Ew5Cdw+g+bkMjA1HDN9S8Qpwl7cEE/d7B/ku3QNmxocCwrDBB3XHoQfeUWEIsUpbCg3vowQyqGUI6FrTB+PHZQX5L7MFwYgdCygOqQYYpecJw4OJB
lpc_rms=-23.78
sample=Bassoon_sustain_PP_A3.opus
</region>

<region>
hikey=D5
hivel=127
lokey=A4
loop_end=240898
loop_mode=loop_continuous
loop_start=78308
loop_xfade=19701
lovel=0
lpc=WUI4QzPp4MO1+6JDPE67wt4hAEPd1anCxTCtwaX7V0DwkKrBrwhWQgDBFrwBOiLCAxt4QbAEjEE5RsvB7Tj1vdcNo0HRrTbAw0GYP8fx2b8RunrBmR2vQSjNxcEz8WNB
lpc_rms=-23.89
pitch_keycenter=A4
sample=Bassoon_sustain_PP_A4.opus
</region>

<region>
hivel=127
key=B1
loop_end=247474
loop_mode=loop_continuous
loop_start=80445
loop_xfade=20239
lovel=0
lpc=zkI2Q6+I/8NT5PBDg9Fxw2mGZ0OQ2jbDNg3jQQriXEFIdEDBtONbQnKposKiTapBEbdPP9Z2Q0JCz+PBVp2wwe5W8EExXP7BWqDQQQUJ4cAWy/FAJbGCwddcDkF8imu/
lpc_rms=-29.77
sample=Bassoon_sustain_PP_B1.opus
</region>

<region>
hivel=127
key=B2
loop_end=253741
loop_mode=loop_continuous
loop_start=82482
loop_xfade=20751
lovel=0
lpc=LYVTQ2LRD8S2iglEhw+cw5FReUNA5B3Dvt9oQvO7NsLCfF5Cp+S2wKzdjML5jCxBA/rFQRQiMULrcDfCfmVGwC146EHmvx/BkzvfQGFg/sHYcqZBbfR0wSdWmEGXL8XA
lpc_rms=-27.23
sample=Bassoon_sustain_PP_B2.opus
</region>

<region>
hivel=127
key=B3
loop_end=249167
loop_mode=loop_continuous
loop_start=80996
loop_xfade=20377
lovel=0
lpc=Zt0IQx5jvcO0/7BDe4IWwzWwtkK6XY7CQin7QVgFIMEN1zVAS10QwTOOv8AxlGLBsjHkQQ/RTUFO+2zBzwC6wOGpUUE5qoPBQusbQUq+FcELlag/fzUNQTv3xb/dpwDA
lpc_rms=-31.42
offset=1152
sample=Bassoon_sustain_PP_B3.opus
</region>

<region>
hivel=127
key=C#2
loop_end=263268
loop_mode=loop_continuous
loop_start=85580
loop_xfade=21530
lovel=0
lpc=yCWaQ3f+Q8QfDBJEsiA5w4lqikPWTmPDmPdjQWApYEGVGaPBHkAzQqKLKsJTlqnBHTlEQsbIzEGTkqjBzgsWwg6aDULY/mjBU0oswb5lhMF0jmxCx0oDwgr70EC83VfA
lpc_rms=-26.32
sample=Bassoon_sustain_PP_C#2.opus
</region>

<region>
hivel=127
key=C#3
loop_end=248734
loop_mode=loop_continuous
loop_start=80855
loop_xfade=20342
lovel=0
lpc=JeeWQykERsTvrDJEOnqkwyeaUUNsfTnDcTAQQ2lExsIq+aRC7DG9QYL8vMIwiDnClU6DQmbjkEH3WZjBc9dBwl2l1kIKtRbC9DEXQRKk1cFCIlJBuutAwsjeMEI1x7LA
lpc_rms=-23.71
sample=Bassoon_sustain_PP_C#3.opus
</region>

<region>
hivel=127
key=C#4
loop_end=265952
loop_mode=loop_continuous
loop_start=86452
loop_xfade=21750
lovel=0
lpc=+IfaQm8uj8M8s3NDsvapwu6jekKJb5jCS1E3QsHthcGBiMBA2TNJPdHqVL+fjhbBhW4TQeRtOb5zOJG/QoGdwZf/2UGoIjNAW0CBwBpdQ8HN7ddA6WuUweDh4kGTXjLB
lpc_rms=-31.87
sample=Bassoon_sustain_PP_C#4.opus
</region>

<region>
hivel=127
key=C2
loop_end=253703
loop_mode=loop_continuous
loop_start=82470
loop_xfade=20748
lovel=0
lpc=ZFRLQ/8tAcR4wshDi+8hw4PvSUO9ZRTD7dnkQZpFTcFTKi5ACMCkQRnA+sGO3/7A63F3QCyJ90GsSqnA2p6rwejdGkJAD/zBkYFKQUbk0MFNnPlBe7iowTdSQUGia0PA
lpc_rms=-30.07
sample=Bassoon_sustain_PP_C2.opus
</region>

<region>
hivel=127
key=C3
loop_end=257427
loop_mode=loop_continuous
loop_start=83681
loop_xfade=21053
lovel=0
lpc=qTB6Q4/NJcT6rQ9Ek7lNw1dOx0K2c8HCZdrzQqLuAMPTrIhCuNihQLHdqsFwyZbCgRS4QrZSEMAqkQDCRuKvQCM0hkFVYqe+gES4PaHxrb+JZ0pBfpZvwqo4WUL5mE7B
lpc_rms=-24.80
sample=Bassoon_sustain_PP_C3.opus
</region>

<region>
hivel=127
key=C4
loop_end=258145
loop_mode=loop_continuous
loop_start=83914
loop_xfade=21112
lovel=0
lpc=SqxLQ3cUAMQpk89DsPMJw+2wzUIwJ+rCoNaWQmkPhcLFuJdC1+UXwhBDOUE2rofCWXCKQs/odUACMaPAa6n5wRLn+UHvCkxB73rXwSouvMEltyxBJXfNv5fIV0JiDBbC
lpc_rms=-27.05
sample=Bassoon_sustain_PP_C4.opus
</region>

<region>
hivel=127
key=D#2
loop_end=248649
loop_mode=loop_continuous
loop_start=80827
loop_xfade=20335
lovel=0
lpc=8wp9Q71nI8RfRwZEiPaBwwMRpkPYBZnDIkYcQzW2vsLrGpJCGZUBwg+7JkA5gZrC+EdqQlBvIULcSIk/j/FPwus9akK5OVrCKEaSQd7i68GoF4ZCelpjwhet00F17s/A
lpc_rms=-27.89
sample=Bassoon_sustain_PP_D#2.opus
</region>

<region>
hivel=127
key=D#3
loop_end=255803
loop_mode=loop_continuous
loop_start=83153
loop_xfade=20920
lovel=0
lpc=N4hvQ514GcRL6gNEaC5Zw8FhDkNr1TbDQwZUQ4wBzsKe6w3C2NwlQubydcFbGyXAwKmJQZCZkUEf4DHCbBv1wSwkmEJjFKrBvDU4QY0rGMJZMc1BtKKrwW5P5UHflk/B
lpc_rms=-24.26
sample=Bassoon_sustain_PP_D#3.opus
</region>

<region>
hivel=127
key=D#4
loop_end=247495
loop_mode=loop_continuous
loop_start=80452
loop_xfade=20241
lovel=0
lpc=uhsRQ6W8ycOQWLxDbxcVw29/r0LBNqzCl/M4QvMlzcGQ5vxBgJH5wb77u8GbzuhBKFmgQc6Gg8GptgXAqiP3P2C7YEFdUA3BAIu9wIAn+cEUmy5CnSkPwYIdLz/CIHnA
lpc_rms=-25.85
sample=Bassoon_sustain_PP_D#4.opus
</region>

<region>
hivel=127
key=D2
loop_end=252341
loop_mode=loop_continuous
loop_start=82028
loop_xfade=20637
lovel=0
lpc=otClQ59pTMQ3hBhEJR+Gwy6JvkOauJDDMWlAQrfQiEAUfg1CIc/uwPxxFsLj/cbCXc/vQqyVDULRpFnBdSp2wgDTUUIh+wrC+ew1PxdNAMF+UqdCx+PHwry5AkJ0FlBA
lpc_rms=-25.71
sample=Bassoon_sustain_PP_D2.opus
</region>

<region>
hivel=127
key=D3
loop_end=247862
loop_mode=loop_continuous
loop_start=80572
loop_xfade=20271
lovel=0
lpc=jNJoQ5DSKcR5DS9ETyykw9Y1BkMBIOPCIQfGQvsw98F92bTBw0TnQUReMsL13BzB88yDQtGEx8EwTgbCA5YYQezldULZRufB2wMIwghFjEHGyhpA/F49wZdSnUEm0ATB
lpc_rms=-25.90
sample=Bassoon_sustain_PP_D3.opus
</region>

<region>
hivel=127
key=D4
loop_end=256565
loop_mode=loop_continuous
loop_start=83401
loop_xfade=20982
lovel=0
lpc=Vg4eQzLn28NkG8lDugIHw0irWEKrJpzCuZNdQlKauEB4aBDBJkK2wbiUisGLU4xBsfSSQc29Nz53tj7BwMeawQCNGULNe1dBEuZAwrLgCkEgQJe+yYMNQrElEMKK/ipB
lpc_rms=-24.97
sample=Bassoon_sustain_PP_D4.opus
</region>

<region>
hivel=127
key=E2
loop_end=246105
loop_mode=loop_continuous
loop_start=80000
loop_xfade=20127
lovel=0
lpc=IQfUQ1OumMQm0JJEZB8PxCHWEUS3/BfEZYeHQ6l0QMKAUATAMHGMQPHvIsJPvMjBVUurQgM5g0Lwjb3CnfjAwh4xXENTuSTDEv1sQvRh+MKJ4FFDPLbUwkO9t784xglB
lpc_rms=-25.19
sample=Bassoon_sustain_PP_E2.opus
</region>

<region>
hivel=127
key=E3
loop_end=254125
loop_mode=loop_continuous
loop_start=82607
loop_xfade=20783
lovel=0
lpc=BG5UQ8WVDMRf+/RDDjcywwd6yUKPJQjDCoUbQ4XRp8JR/LbBtwUxQjlTMcKs+gNBIPRDQu5/BsL+fd1AomU2wlF7nUL7NEfCgJI3QolrksJ7cUdCq/nvwQe+EUI4RIrB
lpc_rms=-25.83
sample=Bassoon_sustain_PP_E3.opus
</region>

<region>
hivel=127
key=E4
loop_end=245782
loop_mode=loop_continuous
loop_start=79895
loop_xfade=20101
lovel=0
lpc=6iSFQvHsLcNT4RRDaa06wm7QAULxZDvCgHeDQRvrhkFgJJvAF7aAwZgBAMH1KOxB/ceCwcy0PEGyz4DBjmHVQCjuAMAy8SlBqhG6wAZxBcH5fBVBJGRbwDvCnz94S8S+
lpc_rms=-32.23
sample=Bassoon_sustain_PP_E4.opus
</region>

<region>
hivel=127
key=F#2
loop_end=251499
loop_mode=loop_continuous
loop_start=81754
loop_xfade=20568
lovel=0
lpc=17saQ3wxx8Mm3rNDrwFVw3HjT0O3USvDv6yyQtKv6sEmfxBBAoXqPwKCz8FmUZDAYdJ/QbiY20HGtMTB6PkswZN10kFNcFnBkPouQZC59sG8acZB44qOwRwBxkGjNUPB
lpc_rms=-31.47
sample=Bassoon_sustain_PP_F#2.opus
</region>

<region>
hivel=127
key=F#3
loop_end=255660
loop_mode=loop_continuous
loop_start=83106
loop_xfade=20908
lovel=0
lpc=gHwOQwZ9tMM5UZJDJscDw3vEFUMFMwPDHxlhQiyFq0DhezjCntrEQQPIc0HqXDDCfBxuQUVd+UE1EO7Ah22RwfAkw0HPDrLBFqFNQDX6+sDCkKpB1nouwaAqh8A22ZFA
lpc_rms=-29.14
sample=Bassoon_sustain_PP_F#3.opus
</region>

<region>
hivel=127
key=F#4
loop_end=253746
loop_mode=loop_continuous
loop_start=82484
loop_xfade=20752
lovel=0
lpc=sNhwQ9ZyK8RvRSBEdvR2w/bUMkPXRDrDuPs9Qr4aLULK90XCqH8WQlZek8L3topCaJAUQVu9d8FQSizCzOB1QUrVWEKngyDCGtjPQKfnrMChL2XAR8sRQgPkWMJIc8dB
lpc_rms=-23.76
sample=Bassoon_sustain_PP_F#4.opus
</region>

<region>
hivel=127
key=F2
loop_end=249612
loop_mode=loop_continuous
loop_start=81140
loop_xfade=20414
lovel=0
lpc=I4iGQ9skOsR4FiREjo+Hw1Thl0NDB5XDGbDsQtLMm8IkllJCZDyQQSfuCsI0MCfCTso8QpnS1kGUvYLB7ykDwmkXpEL2Tm3Cf3GeQNkeMcJCYJhCvG+kwnETnkJ2q/XB
lpc_rms=-25.99
sample=Bassoon_sustain_PP_F2.opus
</region>

<region>
hivel=127
key=F3
loop_end=252876
loop_mode=loop_continuous
loop_start=82201
loop_xfade=20681
lovel=0
lpc=F5UuQ4V78MPYoeJDl1lGwzQ64kJXUvTCSoDuQiD1TMLBs7TBrXQOQiA6UsIu7tBB1yURQJzza0GviphA4woJwjqytUEL4JdBdFTRwVa5msH86glCzVZ/wRNV00BomADA
lpc_rms=-27.94
sample=Bassoon_sustain_PP_F3.opus
</region>

<region>
hivel=127
key=F4
loop_end=248238
loop_mode=loop_continuous
loop_start=80694
loop_xfade=20301
lovel=0
lpc=ka5mQ4UyIcSDgCBELVacw0I5JEPWVubC8GyCQuCtc8HIHinBa00Uws418kGjp9g/8Z7kQZSxX8HbkZ/BHGKUwTzxlUJdpXvCoQw0QKHFpcDSwFFCsRYiwvfRvUB/ymw/
lpc_rms=-22.82
sample=Bassoon_sustain_PP_F4.opus
</region>

<region>
hivel=127
key=G#2
loop_end=251391
loop_mode=loop_continuous
loop_start=81719
loop_xfade=20559
lovel=0
lpc=WcuhQ3PvaMTUWHJETmIXxEYaCkTZaQPEngGvQ4V+BsNyNoFBXVRCwUqwl8J5VP9AIoD8Qibo2kDW5eXC/+CcQaCzuEKcFFjCO4k7wcQ5W8KFid1CefjJwupukkLlscnB
lpc_rms=-24.87
sample=Bassoon_sustain_PP_G#2.opus
</region>

<region>
hivel=127
key=G#3
loop_end=252256
loop_mode=loop_continuous
loop_start=82000
loop_xfade=20630
lovel=0
lpc=qrg5Q3TpAsRZ0u5DGj4nw6czBENXjyXDp2NJQvHaaUKne4zCORmgQRxRHMJPtmxCGWvQQHbfDMD02lDCQYqbQc5f10G2SLHBRVK2QfBhEcLdU/NBT3WYvzjHmMHZ2iJB
lpc_rms=-27.17
sample=Bassoon_sustain_PP_G#3.opus
</region>

<region>
hivel=127
key=G#4
loop_end=268993
loop_mode=loop_continuous
loop_start=87440
loop_xfade=21999
lovel=0
lpc=CM4hQ5CB0MPTUKRD0iaewg02nkLcWuXC66VWQkeoEMLpyXVCV0A+whY/JUEiJKTBGJCuQTf8uUDmdaJBi1ebwi4fu0KG9BHCNorqwPI1z8EO+/JBehJoQQ8G7cFdF0tB
lpc_rms=-25.86
sample=Bassoon_sustain_PP_G#4.opus
</region>

<region>
hivel=127
key=G2
loop_end=261905
loop_mode=loop_continuous
loop_start=85137
loop_xfade=21419
lovel=0
lpc=JqD8Q+SttMTWxLBEFCQ5xDDEGEQwjt7D+LYjQ/XjgMIaBXTCsvjAQjcDesKfCLvCIGJTQ/tOD8BFG9LCNB5Nwiaq20K6m8PCJNLRQjwXTMIUPKZCHf0fw8cutULe4xDB
lpc_rms=-24.78
sample=Bassoon_sustain_PP_G2.opus
</region>

<region>
hivel=127
key=G3
loop_end=257447
loop_mode=loop_continuous
loop_start=83687
loop_xfade=21055
lovel=0
lpc=YgGgQ39gbMRNlG1EKI7sw+Ac10MVIeHD9i85Qyi++UEeX3LCGeeKQGYtasIaXIlCuH93QpmVl8IWOaJBVc7HwSGnekJJAaHC9mutQW9h6sEllplClrDsQeeU2sLaqDdC
lpc_rms=-23.99
sample=Bassoon_sustain_PP_G3.opus
</region>

<region>
hivel=127
key=G4
loop_end=252923
loop_mode=loop_continuous
loop_start=82217
loop_xfade=20684
lovel=0
lpc=A2CtQkOrZcOv/D5DrxxiwmobYEIXjpjCpT7NQU/DIUEeG8q/D80tvgqZkb4QydfBj/HXQfu4zj9WuNPApUQPwdUdVEG4KiRBLgyqwSCN3T9j/BpBsHFYQO8xd8FoEwNB
lpc_rms=-33.27
sample=Bassoon_sustain_PP_G4.opus
</region>
</group>

<group>
amp_veltrack=0
ampeg_release=0.20
group_label=MF
lpc_hicc1=84
lpc_locc1=43
volume=-6.0

<region>
hivel=127
key=A#1
loop_end=263511
loop_mode=loop_continuous
loop_start=85658
loop_xfade=21550
lovel=0
lpc=kguoQrqNe8NPLJFDjmBDwzPrFEP3BgvDyqqvQjTKyMHriQJBWZh2wMb5pcHMdINB+3Z0vsxcekH45u7BYWqSQfWW2L+btK1ANIpFwQ8YDECmv44/VlGhQKSOFMDLO1S/
lpc_rms=-23.52
sample=Bassoon_sustain_MF_A#1.opus
</region>

<region>
hivel=127
key=A#2
loop_end=253918
loop_mode=loop_continuous
loop_start=82540
loop_xfade=20766
lovel=0
lpc=UB/VQhlakMN9w5FDJF01w3+1C0OX7tDCbh5lQnvtscB41sbB00/BQM8t30Azqq/BtCesQelZiEEoF5fBwNO5wD/WcEGoWJnBY/SPQYrT78E2Z0RCtjNJwobGFkKZq2bB
lpc_rms=-23.05
sample=Bassoon_sustain_MF_A#2.opus
</region>

<region>
hivel=127
key=A#3
loop_end=271685
loop_mode=loop_continuous
loop_start=88316
loop_xfade=22219
lovel=0
lpc=gjnmQgMTnsO/FJdDbmMHw39cqUJWFMzCUQaxQhxwF8Ld+JdBkZgYwkBkGEG+MzZBVbJoQNKeO0GsuPnBVg+oQXxqBsENAE1BRGpKwRnyTsCQgE1BezNOwerGNUFfQ5PA
lpc_rms=-18.09
sample=Bassoon_sustain_MF_A#3.opus
</region>

<region>
hivel=127
key=A2
loop_end=266997
loop_mode=loop_continuous
loop_start=86792
loop_xfade=21835
lovel=0
lpc=WvHSQkOxosMpEMxDAVGbw1XIWkPXXiXDnaDAQp+aosHvtjtAdy3PwXR8k0GgGeC/SYRRQFkgIsEPakhBKS4ewdhzOkFFvZfBgjTlQYSD18H+Z5tB6Z/twcuz+kF1myzB
lpc_rms=-20.54
sample=Bassoon_sustain_MF_A2.opus
</region>

<region>
hivel=127
key=A3
loop_end=271776
loop_mode=loop_continuous
loop_start=88345
loop_xfade=22226
lovel=0
lpc=cJYEQxvtucMfuLxDGS5Yw+dMPEPxOkPDP7n1Qg/mL8KGAGZBlkWZweoQtEEftffBktzcQXrP60AAY8PBH0QYQazXBEAsDHjAYynnQIneU8EIzYZBUrpqwUjnxUBIWjE+
lpc_rms=-17.46
sample=Bassoon_sustain_MF_A3.opus
</region>

<region>
hikey=D5
hivel=127
lokey=A4
loop_end=250434
loop_mode=loop_continuous
loop_start=81408
loop_xfade=20481
lovel=0
lpc=hfisQttaTcNp5BhDfiMPwuO7B0L53UXC5DOQQcQDuj96R38/X/OGQSyY3cEX397AEMPMQTbrwT/4J5XAX3bawSwW4kEGcYw/gIEHQE9bTcFUnjXAOJ0tQL+TA0F9bY3A
lpc_rms=-16.57
pitch_keycenter=A4
sample=Bassoon_sustain_MF_A4.opus
</region>

<region>
hivel=127
key=B1
loop_end=261777
loop_mode=loop_continuous
loop_start=85095
loop_xfade=21409
lovel=0
lpc=9Z6gQhcMZsPPOWxD+pb8wpp00kLdZ+XCpqVvQjDBr8EjTf1BPr9vwavjY8HCiIvAeFUzQdF48UF+SR/C37RJQVN7BcFWRYVBKcoSwT0k7j2IgDTAUjd7wG3+cUFjif/A
lpc_rms=-23.95
sample=Bassoon_sustain_MF_B1.opus
</region>

<region>
hivel=127
key=B2
loop_end=266238
loop_mode=loop_continuous
loop_start=86545
loop_xfade=21773
lovel=0
lpc=30vQQlt5kcNtH5JDzKYQw1I/jUKypBvC2aHKwDchFEK/F5fB4itQQMNq7cE336JBUevzwKsbGULn9j3CsMDFQQjm1T9PpYLAUbq1vwE7GMFiPTZBHB0nwbZjSUEjUaLA
lpc_rms=-23.02
sample=Bassoon_sustain_MF_B2.opus
</region>

<region>
hivel=127
key=B3
loop_end=273255
loop_mode=loop_continuous
loop_start=88826
loop_xfade=22347
lovel=0
lpc=Vh3CQgGMicMVFYpDznEGwyl4s0K59avCMiU5Qg1busHhx+JBUVkcwv4XAkLbjQHCiU/7QRlGH0GYI/zBwoI7QZsfNcHIvNJBy0GlwcbwKcBUMktBRHnyv0aqeMBhArs/
lpc_rms=-21.64
offset=18877
sample=Bassoon_sustain_MF_B3.opus
</region>

<region>
hivel=127
key=C#2
loop_end=270013
loop_mode=loop_continuous
loop_start=87772
loop_xfade=22082
lovel=0
lpc=n6UrQ/gz58OLyMpDACcmwzQdKUPC9CXD39ViQiunGMLp0VRC2jm3we37qcAT5/Q/aqGKwWd9ZUIYWmXCefzvQax4iD+7J2zBQOEEv6OfocCPp8tBsabQwbQQekGRi5LA
lpc_rms=-19.96
sample=Bassoon_sustain_MF_C#2.opus
</region>

<region>
hivel=127
key=C#3
loop_end=256509
loop_mode=loop_continuous
loop_start=83382
loop_xfade=20978
lovel=0
lpc=BTkRQyNkw8NjF7xDiHYnw0x1J0JB8QpB4wyZwZwvJ0Gssj7BwCYHQnOdTcHcI17CEAc6Qkp4vEAoDE7BpsCCwFT3nkG8jBHC1oMvQu4dtcGaxKZBD+A+wuc0I0Jp/TDB
lpc_rms=-18.86
sample=Bassoon_sustain_MF_C#3.opus
</region>

<region>
hivel=127
key=C#4
loop_end=273857
loop_mode=loop_continuous
loop_start=89022
loop_xfade=22397
lovel=0
lpc=YuklQ5XA5cM/o9ZD8Y8iw+Pi00IxNf/CFItFQnoEkMDqPJVB53QrwcIcsEDq99/B753HQcXnDcEXD2tBkygqwthRhEITexXCVC2dQRURCsLvQgVCA4FOwpfwa0KqbarB
lpc_rms=-17.70
offset=13865
sample=Bassoon_sustain_MF_C#4.opus
</region>

<region>
hivel=127
key=C2
loop_end=272196
loop_mode=loop_continuous
loop_start=88482
loop_xfade=22261
lovel=0
lpc=E7W9Qsl+g8Ody3xD5D0Dw5ko8UJfvuzCfQiEQstf8sH0OW5Bh18Lwc+s+8DC2xNBkHSuP7x+kEG1sQfCUdGyQTjs6cDuW1NBhL6/wXMjykDgjqVA6pbYQPEu0MD2BX49
lpc_rms=-23.76
sample=Bassoon_sustain_MF_C2.opus
</region>

<region>
hivel=127
key=C3
loop_end=261717
loop_mode=loop_continuous
loop_start=85075
loop_xfade=21404
lovel=0
lpc=V+35Qs3gqMMhKqVDIchBwy9rEEMt6rXCOe0yQkHLB8JTw8VByAGUwTZhpUH84k7C1iM2QlZZbTpTiynBHgl3v3gOh0EPrZ/BsW6fQfhY4cEEEOVB4SsxwnJpTUKv8KTB
lpc_rms=-18.73
sample=Bassoon_sustain_MF_C3.opus
</region>

<region>
hivel=127
key=C4
loop_end=261303
loop_mode=loop_continuous
loop_start=84941
loop_xfade=21370
lovel=0
lpc=vQgnQymX68NlH/tDQPWPwx9/DUNpxnPCt4e9QYgLx8HyAvVB4QOmwXATcUGznYDCQXoqQs1IbEJFY3TC7V0mweutFUIfLMA/4pZowVrN08EyBNRB3faIwUsHDkIv86LB
lpc_rms=-16.24
sample=Bassoon_sustain_MF_C4.opus
</region>

<region>
hivel=127
key=D#2
loop_end=261479
loop_mode=loop_continuous
loop_start=84998
loop_xfade=21384
lovel=0
lpc=5dL6QjB5qMOinJBD/4vawk9c70KP0wTDyQ8UQo8qSUGI8J5B6Km+wSHUfcGhH3lAVuctQEZm80G/5e7BafXgQHgMrkAqmE/Ay8HPv03HNz9VfSdBMqHZwdoytEHhs7XA
lpc_rms=-22.64
sample=Bassoon_sustain_MF_D#2.opus
</region>

<region>
hivel=127
key=D#3
loop_end=271635
loop_mode=loop_continuous
loop_start=88300
loop_xfade=22215
lovel=0
lpc=/MG+QlZyjMN+yJVDvxcQw7L3jkI3BcrCSGXFQhgfFsLo2yPAruMfwTDpa0HZwFrB0fmqQVx/JEAVab7BRpiSv2Y9xEHXRWvBFQPRQKPPh8GnEIZB9G+FvuGmxcBPRg1A
lpc_rms=-19.24
sample=Bassoon_sustain_MF_D#3.opus
</region>

<region>
hivel=127
key=D#4
loop_end=249469
loop_mode=loop_continuous
loop_start=81094
loop_xfade=20402
lovel=0
lpc=z4DBQlMagcNJ2nlDxosVw+PqEUOCTBHDcsXFQqdlRMJgvoxBN5AhwQC6J8GcvyRB/eguQWjOOUGUbYnBJqAnP4suyMFJ4QJCWTlywSEPf0HAI4vBGRxRQXKBa8APaAjA
lpc_rms=-19.05
sample=Bassoon_sustain_MF_D#4.opus
</region>

<region>
hivel=127
key=D2
loop_end=261138
loop_mode=loop_continuous
loop_start=84887
loop_xfade=21356
lovel=0
lpc=d2p7Q+wdGsTZfOJD1D0VwxhxQEMdJTXD+2hFQrf6U0HMSCJBYst5QFVXRcLzuc8/8nH9v+OQb0KD82PCqGwJQRiUuUEV9CtA5zbZwN2lisGnkxBCUeFRwsyn80Hge1fA
lpc_rms=-18.83
sample=Bassoon_sustain_MF_D2.opus
</region>

<region>
hivel=127
key=D3
loop_end=259320
loop_mode=loop_continuous
loop_start=84296
loop_xfade=21208
lovel=0
lpc=02MFQ51yvcOnF71DlIQpwy7Km0I9kYrCv8UUQgyJqsCLYhBBf3mjwQJtaEF/62vBLwUMQQiGFMHzqehA6QwZP+dDx0H4p93BTi63wPl6rkHZ8mDBwFhlwXuN20FWSSfB
lpc_rms=-19.81
sample=Bassoon_sustain_MF_D3.opus
</region>

<region>
hivel=127
key=D4
loop_end=240318
loop_mode=loop_continuous
loop_start=78119
loop_xfade=19654
lovel=0
lpc=N2GBQuLANMMzQzRDujKowjazG0JcaxbCsEr9QSrlJsGuqctACbEYwS/9gcG5oVFBT071QOrz3kB3i1LBcMlMwDNLb0FVJCzBpP4UvqyyR7+etwJAng6Sv/cJvUBVC4bA
lpc_rms=-24.74
sample=Bassoon_sustain_MF_D4.opus
</region>

<region>
hivel=127
key=E2
loop_end=257686
loop_mode=loop_continuous
loop_start=83765
loop_xfade=21074
lovel=0
lpc=5UUBQwVprMPC7JhDTjQRwxrAIkPtODDDjBfDQs4/PsI08RlCPWrqwWo+iz9TWd4/nVc0QWh0L0ELv+nBnljHQbU498CNP0RAhVufwUo8UEDxTahBr46jwVWaj0GkdALB
lpc_rms=-20.73
sample=Bassoon_sustain_MF_E2.opus
</region>

<region>
hivel=127
key=E3
loop_end=265296
loop_mode=loop_continuous
loop_start=86239
loop_xfade=21696
lovel=0
lpc=qpD4QnZroMNhlo5DizbswsxTaEJRiWbCnZM/QmMH8j7Vn/HBsjcDQkBANsL1LrBB/kmTv1sxNj/XqTlAnbKsQGfsaMH+TNxB3juVwdXbmj4xPce+0j1wwXNx0kEHyC3B
lpc_rms=-20.47
sample=Bassoon_sustain_MF_E3.opus
</region>

<region>
hivel=127
key=E4
loop_end=252721
loop_mode=loop_continuous
loop_start=82151
loop_xfade=20668
lovel=0
lpc=qwAuQpxe2cLM3MRC8AZLwk2sMUKCtUXChCMpQsK1vcFRStZAymT8wHPj80D3lJxAkv28wA5/ZL/+pdI/Dz7SwInwEUGPTom/+yDiPsIqM8CxC3xAMMkGwZYT+EC4SOu/
lpc_rms=-23.45
sample=Bassoon_sustain_MF_E4.opus
</region>

<region>
hivel=127
key=F#2
loop_end=274925
loop_mode=loop_continuous
loop_start=89369
loop_xfade=22484
lovel=0
lpc=+LvjQhZcrMPx38xDcRqbw/oth0Ms3WLDaIjzQrEsTMJ2HTlCfU8vwgbvykDAXttA39eTv42B3UH+0DLCFQUVQmbS+8EOwr9BdL5nwedFAkH1EHbAdsCzvpQaG0AG7mq/
lpc_rms=-20.33
sample=Bassoon_sustain_MF_F#2.opus
</region>

<region>
hivel=127
key=F#3
loop_end=254384
loop_mode=loop_continuous
loop_start=82692
loop_xfade=20804
lovel=0
lpc=fVjJQhfrhcOef4BDjU4ZwzkqFkP5+A/DH+OfQons38ER3XZBRg9QPyLdyMH+QhhBT5cVPhIzm0F6U33BHxRkwH1MSEGhbafAJxIlQcX7/8E+sthBRiTKwHbmD8CrWQdA
lpc_rms=-19.17
sample=Bassoon_sustain_MF_F#3.opus
</region>

<region>
hivel=127
key=F#4
loop_end=261010
loop_mode=loop_continuous
loop_start=84845
loop_xfade=21346
lovel=0
lpc=EJkAQ9VGtsME9qhDdwrdwi+NrkLIbBXDzwKXQn5fZEAFnoZAMJcBwTh4ycHLee1BZqacvsaCXcG0kylBqqsowly2kEJRKVvB6WASwoMiT0FTUj/BHjrRQZ7PLMHJUx2/
lpc_rms=-16.12
sample=Bassoon_sustain_MF_F#4.opus
</region>

<region>
hivel=127
key=F2
loop_end=265663
loop_mode=loop_continuous
loop_start=86358
loop_xfade=21726
lovel=0
lpc=ofIIQ65fycMv9tVDoYZsw0+TOkOzp07D3jTuQvwMn8EoX0xBjzlOwbFj1cGEXyZBvMaeQVYL3EDRVLbB6s7ZQIcnm0CMCI7ANtfnQCGOAMExunlBZGExwnt3OEI0xXTB
lpc_rms=-19.76
sample=Bassoon_sustain_MF_F2.opus
</region>

<region>
hivel=127
key=F3
loop_end=269682
loop_mode=loop_continuous
loop_start=87665
loop_xfade=22055
lovel=0
lpc=FGDlQj/9pMMvnK9DV8xHw6adBUOISwvDvkvwQl13X8It7C5BYvO1wUYTe0EMgn5AGWrbvyRRTUGpvLfBvfTeQJoDZUCbd0JBC6OWwSYg/UDjnTbBBoyVQTgDNMGgzyNA
lpc_rms=-18.25
sample=Bassoon_sustain_MF_F3.opus
</region>

<region>
hivel=127
key=F4
loop_end=262291
loop_mode=loop_continuous
loop_start=85262
loop_xfade=21451
lovel=0
lpc=GpPEQlymdcMeNUlDZWKcwjZVw0JoHPPCQOePQvk4w8FNXxZApSirP7Hx48EPsj1C9DOPwf9f0kHLuinCPrCpQc2qs8EIZYNBoHmeQeynAcIQeeNBCMHcwcoFj0FwoVnA
lpc_rms=-16.62
sample=Bassoon_sustain_MF_F4.opus
</region>

<region>
hivel=127
key=G#2
loop_end=263979
loop_mode=loop_continuous
loop_start=85810
loop_xfade=21589
lovel=0
lpc=U1ZHQzsoFMQIOyhEusvTw0CcgUPSkS3DdvGKQqMQWkFGaj/BQ9MNwlrAFkEV8OzAzAqLQn3INcJqubzBJpUwQY99CkLNALTBiCAXQHvWz8FBAV5CnN2LwuW+W0LOrojB
lpc_rms=-16.49
sample=Bassoon_sustain_MF_G#2.opus
</region>

<region>
hivel=127
key=G#3
loop_end=265784
loop_mode=loop_continuous
loop_start=86397
loop_xfade=21736
lovel=0
lpc=zHizQtC4csMDi2tDGWcJw34xA0PI5vTCNhpdQrvu3j/SKETA6NkuwXlKm8FoUeVBF830vkNZ30B6Hv7BYcT5QftCUMELNZVB9A//wYseFEHXud5A7RpKwLf8CkFzyNvA
lpc_rms=-18.36
sample=Bassoon_sustain_MF_G#3.opus
</region>

<region>
hivel=127
key=G#4
loop_end=268880
loop_mode=loop_continuous
loop_start=87404
loop_xfade=21989
lovel=0
lpc=W0ebQmZaYcMdcG1D/g0Dwz5Nz0LOluHCx82ZQiS4EcKjE21BziRRwVZYGkGNCWjAvAYqQVFMREHyZTDCnA6fQZyXO0ELFxRAUxTiwPn4z8F/zQJCoR+PwID61cBmVek/
lpc_rms=-19.28
sample=Bassoon_sustain_MF_G#4.opus
</region>

<region>
hivel=127
key=G2
loop_end=267983
loop_mode=loop_continuous
loop_start=87112
loop_xfade=21916
lovel=0
lpc=c7UsQ9BGAsTERxJECSytw+ZDWUPlYTrDc6HcQjXp2MEO+TTAJ0M2QKB8UcEIjkvBpHIZQmYgg0FKabHCslOPQrlejcCqxczAQVhwQG/4u8ETmYVBSEUqwQ6Xl0H4oh7B
lpc_rms=-17.59
sample=Bassoon_sustain_MF_G2.opus
</region>

<region>
hivel=127
key=G3
loop_end=261697
loop_mode=loop_continuous
loop_start=85069
loop_xfade=21402
lovel=0
lpc=7oECQ9D/t8Mmg7xDvR1uw+Xva0OXeGXDmCDqQoSLSMGjniTBMUkdQBXsP8GjXfjBnz2iQh40asJME+pBV6/3wUXa3EEkc2FBmycMwn/4gMBNY6xBVriAwRkFs0FDIkPB
lpc_rms=-17.44
sample=Bassoon_sustain_MF_G3.opus
</region>

<region>
hivel=127
key=G4
loop_end=262158
loop_mode=loop_continuous
loop_start=85219
loop_xfade=21440
lovel=0
lpc=YLysQvHjbsMyv2NDHFLjwh1/8kLS4hbDB2nRQlrsg8LG5G5Cb98Kwm1HDEGx7gzCxz9VQlBDG8IFwDJCudspwnL/30Hbp5LBux7pQNPQnMHsbORBt4kqwYaUzT+Gjva/
lpc_rms=-20.64
sample=Bassoon_sustain_MF_G4.opus
</region>
</group>

<group>
amp_veltrack=0
ampeg_release=0.20
group_label=FF
lpc_hicc1=127
lpc_locc1=85

<region>
hivel=127
key=A#1
loop_end=269733
loop_mode=loop_continuous
loop_start=87681
loop_xfade=22059
lovel=0
lpc=E9O5QjBaisNO9p5DEelBw1N0uULTlErC1VyKQffZrkHgEhfC0xcTQpjNFcJTQWRBtUNqQC0X+T+8vGfAkbi9QFkl0j8T/ILB+/SDQWcg+cCPpH1A3UVmwTTCpkGi8Q/B
lpc_rms=-19.90
sample=Bassoon_sustain_FF_A#1.opus
</region>

<region>
hivel=127
key=A#2
loop_end=256899
loop_mode=loop_continuous
loop_start=83509
loop_xfade=21010
lovel=0
lpc=UU04QxhB+MOhN/JD53iLwwBiUUMUIBrD3ayaQvbKm8FlL63A2LqswHS6pEHnRRXC5dqfQZbqgUFuMMjBdXslP7GCtUF07FLBoFV1QaSQ0MEkY9RBG9fGwf6a8UBY1EhA
lpc_rms=-16.94
sample=Bassoon_sustain_FF_A#2.opus
</region>

<region>
hivel=127
key=A#3
loop_end=263406
loop_mode=loop_continuous
loop_start=85624
loop_xfade=21542
lovel=0
lpc=mx+RQ/mOR8SnKzxE996+wwUcrUOHCY/D1MxWQhu6uEJH3eHCPEQ6QgO19cG9fdRBFRltQQ4X8kGwaXbCOx5nwKXKAEKFGyo+KFSUQYiBcMI/cDlCF2TiwV1VkEHeJB7A
lpc_rms=-10.56
sample=Bassoon_sustain_FF_A#3.opus
</region>

<region>
hivel=127
key=A2
loop_end=259221
loop_mode=loop_continuous
loop_start=84264
loop_xfade=21200
lovel=0
lpc=fvZCQzyFDMT6hhpEKjbSw9yQpkPKynrD6MrTQnnZjcFR3gdCrnA4wqE6kD9jcxzBLIC/Qc3cakErJKXBS0khwaQ2tEG0psHAzk9nQV5kLMIFtiRCZ54iwu9eGkJH+VbB
lpc_rms=-16.64
sample=Bassoon_sustain_FF_A2.opus
</region>

<region>
hivel=127
key=A3
loop_end=261190
loop_mode=loop_continuous
loop_start=84904
loop_xfade=21361
lovel=0
lpc=MkMpQ5O538Ned8ZD6j0xw9O3M0POVmTD+eg6QxKQ88Jud6ZCdB58wic0mEG54CXC1KiyQonXOcLoDsxBbT0dwpOeBkFUEp1ALVc6QSciG8GBhZBAfKqJQEdkl8FQeENB
lpc_rms=-12.71
sample=Bassoon_sustain_FF_A3.opus
</region>

<region>
hikey=D5
hivel=127
lokey=A4
loop_end=252514
loop_mode=loop_continuous
loop_start=82084
loop_xfade=20651
lovel=0
lpc=KhfoQraYkcMw03xDFhvrwqtbzUJBoqLCvvmOQNL0mUHneCE/o3sdQWAQEMEbhU3BudEfQCGrQkGXCzrBccTFwOfxt0EFLry+B0CgwS3s3EHz3AbCTC2KQazlQMBpGM0/
lpc_rms=-15.31
pitch_keycenter=A4
sample=Bassoon_sustain_FF_A4.opus
</region>

<region>
hivel=127
key=B1
loop_end=260972
loop_mode=loop_continuous
loop_start=84833
loop_xfade=21343
lovel=0
lpc=jXOWQlQ6aMPXnZNDtAJrw92rMUPdpQrDQaqqQn5PH8L6QbZBt+wsQBxYNcKxyGFCjvcRwtFaukHQ5FjBLRsuQGCwjL90JfdASzKBwaJgIkFa47e+VeTuPjnr3z+BbgzA
lpc_rms=-19.87
sample=Bassoon_sustain_FF_B1.opus
</region>

<region>
hivel=127
key=B2
loop_end=258694
loop_mode=loop_continuous
loop_start=84093
loop_xfade=21156
lovel=0
lpc=zS0EQ76Up8NKfo9DOYcXw9CgGEOiovTCFIJuQru1rMHr+lZA+H1uQcWUE8Lsu+S+jsqyQLxNNUKtkU3ClMrUQeApVr9t0nBACSgUwTMs+8DvYYJBDH7cwcuv1UF9ee7A
lpc_rms=-18.10
sample=Bassoon_sustain_FF_B2.opus
</region>

<region>
hivel=127
key=B3
loop_end=276577
loop_mode=loop_continuous
loop_start=89906
loop_xfade=22619
lovel=0
lpc=4eEhQ7Di4cNC2NtD2bZOw2tGF0NlRyzDZi/yQpfqh8L0Z1FCJE6WwUv/rcHZLUnB0j0EQhmvwUHMVpXCksygQjG4WsKs/S5Cg2bnwWGTyMBGpTtBkRx5wXXIxEEM5SHB
lpc_rms=-15.95
offset=17936
sample=Bassoon_sustain_FF_B3.opus
</region>

<region>
hivel=127
key=C#2
loop_end=262445
loop_mode=loop_continuous
loop_start=85312
loop_xfade=21463
lovel=0
lpc=1IlgQ7faGcQaHQxE52J2w0OtYEPzn1HDPjqZQl+1f8L/Iq5Cjm/6wesaPsECZC7B7N9AQberBUJrCQTCIuhxP8e1r0BuEwLBqUj3QNqCisGrhAVCZMN8wYm6wcCTRZJA
lpc_rms=-17.23
sample=Bassoon_sustain_FF_C#2.opus
</region>

<region>
hivel=127
key=C#3
loop_end=264903
loop_mode=loop_continuous
loop_start=86111
loop_xfade=21664
lovel=0
lpc=6iyRQuivU8P1QG1DrToNw97wkEIEOz/Chy+lQRME1EB3fabB5aELQo4ZDsIXwwpBSoCfP/79i0FClIbB84EuwZaClkH+ea7AzykfQbFYcME16bRAphDNwGfTIEEwGnjA
lpc_rms=-18.29
sample=Bassoon_sustain_FF_C#3.opus
</region>

<region>
hivel=127
key=C#4
loop_end=267578
loop_mode=loop_continuous
loop_start=86981
loop_xfade=21883
lovel=0
lpc=xdovQ4o98sPmbc5DgfidwonUZ0IT9ifDAFfXQoMD5cFAt5XAXwoeQgIoicFePvvBZta1QNKJ7kE+4YDBHDa1wfs2YkK5FoHBzGvWwVAlh0DeXOS/436CQUKXAcFGFrE/
lpc_rms=-17.06
offset=13532
sample=Bassoon_sustain_FF_C#4.opus
</region>

<region>
hivel=127
key=C2
loop_end=261839
loop_mode=loop_continuous
loop_start=85115
loop_xfade=21414
lovel=0
lpc=OKb7Qt6AssPcU7dDTq9Wwzu0NUNU6C3DkuDaQkMDVsIRsNpBFEGEwWxZT0E3YhbCNEYlQj+Wwj+4/ZTBHlO+wJ/exUGoIfXA753wwMtVR8H6aPdBW9EVwhK8DUJDu2bB
lpc_rms=-19.34
sample=Bassoon_sustain_FF_C2.opus
</region>

<region>
hivel=127
key=C3
loop_end=263565
loop_mode=loop_continuous
loop_start=85676
loop_xfade=21555
lovel=0
lpc=W1TlQojwnsOrb5xD9hcjw2cR6EI2uaTCxODRQePWiMFjmEhAo4MdQtV2P8KUhExAwzv8QCCpoUEKW1XBIQXTP5xL18Ca44pBDYj7wVtYk0HU/1pAY1KAwcOkyUEgV07B
lpc_rms=-17.80
sample=Bassoon_sustain_FF_C3.opus
</region>

<region>
hivel=127
key=C4
loop_end=256985
loop_mode=loop_continuous
loop_start=83537
loop_xfade=21017
lovel=0
lpc=22YgQxwX3sPaWdJDLhk0w8XjBEOLiwfD0XtFQjUiwMHIwxRCvOr9QIk2HcKb2r1A7VQeP0g3M0LYdU7CN/QtQU/AtcEiY35CvEuWwdbRmsHI7wfBv5CMwBg440F7hTjB
lpc_rms=-16.46
sample=Bassoon_sustain_FF_C4.opus
</region>

<region>
hivel=127
key=D#2
loop_end=260666
loop_mode=loop_continuous
loop_start=84734
loop_xfade=21318
lovel=0
lpc=p9c8Q3FqBcQr/f5DnE9ewwKfGkNP8hbDcTh6QjpXW8Edi/tBVffTwWd3McGbqW/Aw1LyQKPql0FvvDbBR+oMwR5n4kGsPebB9opXQYgneMEKwp5B/49hP/9NocHIDy5B
lpc_rms=-18.91
sample=Bassoon_sustain_FF_D#2.opus
</region>

<region>
hivel=127
key=D#3
loop_end=256302
loop_mode=loop_continuous
loop_start=83315
loop_xfade=20961
lovel=0
lpc=APEfQ16x58OQBfVDcLJxw06y6EK1vhrDjhczQzQR5sLJo75BG9aRQWxjmMBq3vLBKmKcQWMH0EFc+8DBnXe7wKp9EED2lLNBZHstv5DQZMLR121C5I/cwXR2kUGg5wfB
lpc_rms=-15.34
sample=Bassoon_sustain_FF_D#3.opus
</region>

<region>
hivel=127
key=D#4
loop_end=246336
loop_mode=loop_continuous
loop_start=80075
loop_xfade=20146
lovel=0
lpc=85voQlcnocPobKRDT6A1w8+n30JfaaDCFWwsQm12PcF+49c+hL+sQCs4DsKxu6tBIuGeQQEu8z9aWA7CWJHRQLpX5UGxSYhA7XHJwXfcJMEreOdAUdvjQebQx8GAArFA
lpc_rms=-16.38
sample=Bassoon_sustain_FF_D#4.opus
</region>

<region>
hivel=127
key=D2
loop_end=260169
loop_mode=loop_continuous
loop_start=84572
loop_xfade=21277
lovel=0
lpc=j/FjQwZDDcRkg+JDFxJzw2+nj0PcY07D0TCLQq/AJ8LJwDBCor4YwX28qcFy6pvBvsaMQE+MFkJIWBXCZZ8nQnRSpMFHdBhB/woEwd1sk8GjYQxCcljuwUFIEkEG1gJA
lpc_rms=-18.74
sample=Bassoon_sustain_FF_D2.opus
</region>

<region>
hivel=127
key=D3
loop_end=252863
loop_mode=loop_continuous
loop_start=82197
loop_xfade=20680
lovel=0
lpc=8ownQ1E488Mc3f1DGBl/wzxm/EJLxu/CYvLOQkfi9cGgc9DBLKEQQqe1I8Kl6w3BO8QPQpt320AHBnPBs86ywW7QvUF19QJCbCEkwowNM0CX/R1ANtcvwcf1sUFpURTB
lpc_rms=-14.16
sample=Bassoon_sustain_FF_D3.opus
</region>

<region>
hivel=127
key=D4
loop_end=257886
loop_mode=loop_continuous
loop_start=83830
loop_xfade=21090
lovel=0
lpc=mRzvQtk6q8ONQbFDxmo7w2D400KDxKfCXQdlQhvhrcF/GA/ABd/pQE8HiMFVmalAriyPvu/mpUHLqNTBr/w4QeE10T9vebZAtcjtwHvEQT8Ng9/AX/CkQIMarkDpbIrA
lpc_rms=-16.40
sample=Bassoon_sustain_FF_D4.opus
</region>

<region>
hivel=127
key=E2
loop_end=267268
loop_mode=loop_continuous
loop_start=86880
loop_xfade=21858
lovel=0
lpc=bhRqQ87oIMS7eRlEaKSmw196kEMQzmTDFMbBQp+nLsI/EDNCecIswheooUHmNtjBmjZSQTwX5EGyGQDC0asHQPu0BUK2FgPCVcquQQ1o6sHM1MFBgoCpwB1n2sABe5JA
lpc_rms=-17.14
sample=Bassoon_sustain_FF_E2.opus
</region>

<region>
hivel=127
key=E3
loop_end=253151
loop_mode=loop_continuous
loop_start=82291
loop_xfade=20703
lovel=0
lpc=Y7kGQ16+ucMypLlDOI9Bw42i3kJixMfCzCvFQlfWf8K1RKtAkXNoQVEnj8EiPjNBORNMQQF1BsH1I5fBnTOqQZoXi8E9rNNBj2vDwN1mJ8I14UNC7pE5wfQ+t8Aggo4/
lpc_rms=-15.35
sample=Bassoon_sustain_FF_E3.opus
</region>

<region>
hivel=127
key=E4
loop_end=263472
loop_mode=loop_continuous
loop_start=85646
loop_xfade=21547
lovel=0
lpc=XPjqQtTVlsP0lo9DGW0Xw0616kItW97CB815Qt6mQcEydUjBdmEnQWtHDsHS0INB1FlRwY9iCUFrpk/B/fNOQK1Lh0HXn4g/eb9Xwe1H679EpAbBv3cJQePKkkGl6FfB
lpc_rms=-15.84
sample=Bassoon_sustain_FF_E4.opus
</region>

<region>
hivel=127
key=F#2
loop_end=261704
loop_mode=loop_continuous
loop_start=85071
loop_xfade=21403
lovel=0
lpc=vGEKQ0vezMMWVetDj0Ckw5W1cUO5JSvDBPiCQmYfqMBArsxBLVH3wUzv5MC6R55AUbfcQPAx6j+tn+U+Pb7jv6iTFMGmbIZBcfEOwcD6hkDBeyDB0B5aQTMLN8GMnZFA
lpc_rms=-18.26
sample=Bassoon_sustain_FF_F#2.opus
</region>

<region>
hivel=127
key=F#3
loop_end=250248
loop_mode=loop_continuous
loop_start=81347
loop_xfade=20466
lovel=0
lpc=kJ9MQ4LLEMQtTxVElQm4w4EbuUOAPd3DudKzQ1qIWsOvVBxD04n0wrYHLEJjzhvB2l9OQoaAkMLKScBBcegZQK7CyUCXg6NB+yKVwY7JVcH9QpBBvkpvwdlE50CgKUQ/
lpc_rms=-15.42
sample=Bassoon_sustain_FF_F#3.opus
</region>

<region>
hivel=127
key=F#4
loop_end=251583
loop_mode=loop_continuous
loop_start=81781
loop_xfade=20575
lovel=0
lpc=gP1nQ4dgEcQo/d9DnjL8wi+l60LaBTPD/LsJQ4h/7cHCSUHAu74yQc4CT8J4MwTANuCPQrNMwcKuHIpCdgauwo0B7kKpWCDCZgjCQSBUScJX6g5Cuj6lwcGPjMGg0qRB
lpc_rms=-16.59
sample=Bassoon_sustain_FF_F#4.opus
</region>

<region>
hivel=127
key=F2
loop_end=267460
loop_mode=loop_continuous
loop_start=86942
loop_xfade=21873
lovel=0
lpc=P1WAQxJDQ8TU3U5E0nG/wzMHfkMmo6rDi8lNQ24zOcIGLRRCmR0TwLlIfcK3qrBBFmSNwDg6jUKdB6fCUJobQn6DLUBNjSpB1vE2wlo2nEGklvxBpQhJwtZKC0K5shrB
lpc_rms=-15.23
sample=Bassoon_sustain_FF_F2.opus
</region>

<region>
hivel=127
key=F3
loop_end=263669
loop_mode=loop_continuous
loop_start=85710
loop_xfade=21563
lovel=0
lpc=PEpXQgnCHMNoLitDmSi1wsj2J0I3PUjCIWRjQjSE+sGyOo9AH2SdQJ75WMGbbI5Bi1quwWGnrkE/eGs/SlmqwZC3LkF+wT5BsbhNwWBneMDUUEY/aimoQf8Sw8HWeQxB
lpc_rms=-18.56
sample=Bassoon_sustain_FF_F3.opus
</region>

<region>
hivel=127
key=F4
loop_end=257190
loop_mode=loop_continuous
loop_start=83604
loop_xfade=21033
lovel=0
lpc=jSkaQ2lYz8NDkMRDfGpYw/vtTEPUuUDD5O3PQh8Aw8EkrrLBE37YQbyvaMIjVKBCxEDWwabdX0FJbz7Ca+MuQTqbCkLKDxbBYvbRQHIjBsLhaTjAYieiQZH0pEG/AaHB
lpc_rms=-15.70
sample=Bassoon_sustain_FF_F4.opus
</region>

<region>
hivel=127
key=G#2
loop_end=268090
loop_mode=loop_continuous
loop_start=87147
loop_xfade=21925
lovel=0
lpc=2OUfQ4e75cNzL+9Dnm+Dwyq/NkPPDwjDIhrmQWokmEDxmKxBu/lXQKRkUMIZQ9pAt98bQh+DikENswnC/4d6wes4xkHqUy5AmV8RwYBhO8FPEYxBy483wfXOhkELwiLB
lpc_rms=-16.67
sample=Bassoon_sustain_FF_G#2.opus
</region>

<region>
hivel=127
key=G#3
loop_end=259610
loop_mode=loop_continuous
loop_start=84390
loop_xfade=21231
lovel=0
lpc=y2WfQrQKTcMehzZDUmrIwvB440KPSunCOxqYQr13bMI28UdCyKmPwRXmXcGiDoY/G8OCQXBOCkEhMznB41OZwXXOhkHTmW5BGN0/welYY8HHugxBvWCCv8lT+ED8TIzA
lpc_rms=-18.25
sample=Bassoon_sustain_FF_G#3.opus
</region>

<region>
hivel=127
key=G#4
loop_end=267582
loop_mode=loop_continuous
loop_start=86982
loop_xfade=21883
lovel=0
lpc=ty2FQhY6PsMPME5Do98Kwwdh7kLALsTClyVcQhtJ3MEMRRq/s0qEQZwLPsFgD/Q/6F7tv31YqkEulYjBds9aPzaJN8H5fAhBxJjFQKJXIsECY7FBSZ/ewX9BW0HuUOC/
lpc_rms=-18.67
sample=Bassoon_sustain_FF_G#4.opus
</region>

<region>
hivel=127
key=G2
loop_end=271406
loop_mode=loop_continuous
loop_start=88225
loop_xfade=22196
lovel=0
lpc=F/OzQ/paisQ7MqFEZV1LxBq97kOJd67DkIhlQxPUAcNdtLpCZtkpwdIuysJoRgpCPUh7wAKeEUM7+mTDkZAMQ+kE8j/HAmzBdKONQRZAxcJDxOtC0iKxwqikWEI7n2/B
lpc_rms=-10.32
sample=Bassoon_sustain_FF_G2.opus
</region>

<region>
hivel=127
key=G3
loop_end=261831
loop_mode=loop_continuous
loop_start=85113
loop_xfade=21413
lovel=0
lpc=yscmQ0Xn6sOo+N5DMEdSw5e0X0NjLIfDr1oVQ7MwKsI1F7hB5XsawoHrq0EPg2jBfZsoQjOA0cC0d57BAieiwZa3WUEWNJVBPkOBP6g/58EgBYFBVIkhQQeITcGEBWhA
lpc_rms=-13.64
sample=Bassoon_sustain_FF_G3.opus
</region>

<region>
hivel=127
key=G4
loop_end=261903
loop_mode=loop_continuous
loop_start=85136
loop_xfade=21419
lovel=0
lpc=EK22Qj9eb8O2z1ZDQS3QwnizvEK7tbPC7xBGQioQp8GAgaNAi6waQckWDcJe7NRByXt6QZw5wMFQ9HBBz++8wTNuD0JpbYLBXgI3wZzb5MB2wnZBg1FcQYqOq8Hk7ulA
lpc_rms=-18.59
sample=Bassoon_sustain_FF_G4.opus
</region>
</group>